<?xml version="1.0" standalone="no"?>
<!DOCTYPE svg PUBLIC "-//W3C//DTD SVG 20010904//EN"
 "http://www.w3.org/TR/2001/REC-SVG-20010904/DTD/svg10.dtd">
<svg version="1.0" xmlns="http://www.w3.org/2000/svg"
 width="100.000000pt" height="100.000000pt" viewBox="0 0 100.000000 100.000000"
 preserveAspectRatio="xMidYMid meet">
<metadata>
Created by potrace 1.14, written by Peter Selinger 2001-2017
</metadata>
<g transform="translate(0.000000,100.000000) scale(0.100000,-0.100000)"
fill="#000000" stroke="none">
<path d="M0 500 l0 -500 500 0 500 0 0 500 0 500 -500 0 -500 0 0 -500z m310
440 c20 -11 65 -78 57 -86 -2 -3 9 -19 24 -35 37 -40 38 -79 3 -110 -15 -13
-40 -37 -56 -53 -32 -30 -87 -44 -99 -24 -5 8 -15 6 -36 -8 -15 -10 -37 -22
-48 -25 -31 -9 -75 19 -92 58 -14 34 -13 38 6 64 18 24 18 29 6 39 -31 26 -8
117 34 140 11 5 33 10 50 10 17 0 45 9 63 20 37 22 60 25 88 10z m400 -69 c9
-18 12 -18 40 -5 38 19 66 10 86 -27 12 -25 13 -34 2 -57 -13 -26 -12 -27 17
-37 26 -9 30 -15 33 -52 3 -36 -1 -44 -24 -60 -15 -9 -39 -18 -53 -19 -23 -1
-26 -5 -23 -34 5 -64 -48 -86 -110 -45 -37 25 -39 29 -33 62 6 35 6 35 -17 19
-24 -17 -83 -22 -92 -7 -4 5 -9 31 -13 56 -5 42 -3 50 18 66 13 10 32 19 43
19 13 0 16 4 11 18 -4 9 -10 29 -12 44 -10 57 100 108 127 59z m-331 -363 c70
-42 86 -81 55 -140 -16 -31 -9 -47 21 -48 6 0 22 -10 37 -23 25 -20 26 -25 19
-71 -10 -62 -48 -100 -91 -91 -25 5 -29 3 -35 -23 -3 -16 -17 -40 -30 -52 -19
-18 -31 -21 -59 -16 -38 7 -76 46 -76 77 0 23 -13 24 -30 4 -20 -24 -68 -18
-97 11 -22 22 -25 32 -20 72 3 30 12 52 26 63 28 23 27 34 -9 59 -33 23 -38
51 -18 95 13 29 65 48 118 43 28 -2 38 -9 51 -37 13 -27 17 -30 22 -17 4 10 7
26 7 35 0 17 53 81 66 81 4 0 23 -10 43 -22z m394 -68 c13 -19 16 -19 45 -4
24 11 36 12 51 4 40 -21 54 -76 26 -103 -12 -13 -10 -15 16 -21 34 -7 55 -42
45 -80 -7 -27 -51 -56 -86 -56 -17 0 -20 -6 -20 -38 0 -68 -64 -81 -123 -26
-16 15 -26 32 -23 40 21 51 22 49 -4 31 -14 -9 -41 -17 -62 -17 -34 0 -38 3
-47 38 -6 20 -11 43 -11 50 0 18 49 62 70 62 16 0 16 3 4 38 -18 52 -18 54 19
80 40 28 81 29 100 2z"/>
<path d="M240 750 c-23 -5 -23 -7 -6 -13 11 -4 24 -3 30 3 14 14 5 18 -24 10z"/>
<path d="M695 720 c-3 -5 -1 -10 4 -10 6 0 11 5 11 10 0 6 -2 10 -4 10 -3 0
-8 -4 -11 -10z"/>
<path d="M273 297 c4 -10 7 -23 7 -28 0 -5 5 -9 10 -9 15 0 12 20 -7 38 -16
16 -16 16 -10 -1z"/>
<path d="M765 290 c-3 -5 -1 -10 4 -10 6 0 11 5 11 10 0 6 -2 10 -4 10 -3 0
-8 -4 -11 -10z"/>
</g>
</svg>
